<?xml version="1.0" encoding="UTF-8"?>
<svg width="2520px" height="1440px" enable-background="new 0 0 2520 1440" version="1.1" viewBox="0 0 2520 1440" xml:space="preserve" xmlns="http://www.w3.org/2000/svg">
<rect width="2520" height="1440" display="none" fill="none" stroke="#231F20" stroke-miterlimit="10"/><g stroke="#fff" stroke-miterlimit="10">
<polygon points="696.4 396.7 125.8 396.7 -159.5 704.5 125.8 1012 696.4 1012 981.8 704.5" enable-background="new    " fill="#fff" opacity=".02"/>
<path d="m1492 4.388h-439.3l-219.7 238.2 219.7 238.2h439.4l219.7-238.2-219.7-238.2zm-3.41 472.7h-432.5l-216.3-234.5 216.3-234.5h432.5l216.3 234.5-216.3 234.5z" enable-background="new    " fill="#FFFDFE" opacity=".1"/>
<polygon points="1488 8.084 1056 8.084 839.5 241.4 1056 474.7 1488 474.7 1705 241.4" enable-background="new    " fill="#fff" opacity=".05"/>
<path d="m316.7 703.5h-118.4l-59.18 64.17 59.18 64.17h118.4l59.18-64.17-59.18-64.17zm-0.919 127.3h-116.5l-58.26-63.17 58.26-63.17h116.5l58.26 63.17-58.26 63.17z" enable-background="new    " fill="#FFFDFE" opacity=".1"/>
<polygon points="315.8 704.5 199.3 704.5 141 767.4 199.3 830.2 315.8 830.2 374 767.4" enable-background="new    " fill="#fff" opacity=".05"/>
</g><g opacity=".05" stroke="#fff" stroke-miterlimit="10">
	<path d="m493.5 767.4h-118.4l-59.18 64.17 59.18 64.17h118.4l59.18-64.17-59.18-64.17zm-0.918 127.3h-116.5l-58.26-63.17 58.26-63.17h116.5l58.26 63.17-58.26 63.17z" fill="#FFFDFE"/>
	<polygon points="492.5 768.4 376 768.4 317.8 831.2 376 894.1 492.5 894.1 550.8 831.2" enable-background="new    " fill="#fff" opacity=".5"/>
</g>
<g opacity=".05" stroke="#fff" stroke-miterlimit="10">
	<path d="m668.5 832.6h-118.4l-59.18 64.17 59.18 64.17h118.4l59.18-64.17-59.18-64.17zm-0.918 127.3h-116.5l-58.26-63.17 58.26-63.17h116.5l58.26 63.17-58.26 63.17z" fill="#FFFDFE"/>
	<polygon points="667.5 833.5 551 833.5 492.8 896.4 551 959.3 667.5 959.3 725.8 896.4" enable-background="new    " fill="#fff" opacity=".5"/>
</g>
<g opacity=".05" stroke="#fff" stroke-miterlimit="10">
	<path d="m492.9 896.7h-118.4l-59.18 64.17 59.18 64.17h118.4l59.18-64.17-59.18-64.17zm-0.919 127.3h-116.5l-58.26-63.17 58.26-63.17h116.5l58.26 63.17-58.26 63.17z" fill="#FFFDFE"/>
	<polygon points="492 897.7 375.5 897.7 317.2 960.6 375.5 1023 492 1023 550.3 960.6" enable-background="new    " fill="#fff" opacity=".5"/>
</g>
<g opacity=".05" stroke="#fff" stroke-miterlimit="10">
	<path d="m315.5 960.9h-118.4l-59.18 64.17 59.18 64.17h118.4l59.18-64.17-59.18-64.17zm-0.918 127.3h-116.5l-58.26-63.17 58.26-63.17h116.5l58.26 63.17-58.26 63.17z" fill="#FFFDFE"/>
	<polygon points="314.5 961.9 198 961.9 139.8 1025 198 1088 314.5 1088 372.8 1025" enable-background="new    " fill="#fff" opacity=".5"/>
</g><g fill="#fff" stroke="#fff" stroke-miterlimit="10">
<polygon points="896.2 881.7 559.1 881.7 390.6 1064 559.1 1245 896.2 1245 1065 1064" enable-background="new    " opacity=".02"/>
<polygon points="301.1 1012 35.8 1012 -96.84 1215 35.8 1418 301.1 1418 433.8 1215" enable-background="new    " opacity=".02"/>
<polygon points="2078 504.6 1901 504.6 1813 600 1901 695.5 2078 695.5 2167 600" enable-background="new    " opacity=".05"/>
<polygon points="2183 1280 1822 1280 1641 1450 1822 1619 2183 1619 2364 1450" enable-background="new    " opacity=".02"/>
<polygon points="1320 677.9 958.7 677.9 778 847.6 958.7 1017 1320 1017 1501 847.6" enable-background="new    " opacity=".02"/>
<polygon points="2260 627.9 1792 627.9 1558 847.6 1792 1067 2260 1067 2494 847.6" enable-background="new    " opacity=".02"/>
</g><g opacity=".05" stroke="#fff" stroke-miterlimit="10">
	<path d="m2073 780.2h-187.4l-93.69 101.6 93.69 101.6h187.4l93.69-101.6-93.69-101.6zm-1.455 201.6h-184.5l-92.23-100 92.23-100h184.5l92.23 100-92.23 100z" fill="#FFFDFE"/>
	<polygon points="2072 781.7 1887 781.7 1795 881.2 1887 980.7 2072 980.7 2164 881.2" enable-background="new    " fill="#fff" opacity=".5"/>
</g>
<polygon points="2476 -9 2299 -9 2211 86.42 2299 181.8 2476 181.8 2565 86.42" enable-background="new    " fill="#fff" opacity=".02" stroke="#fff" stroke-miterlimit="10"/>
<g opacity=".05" stroke="#fff" stroke-miterlimit="10">
	<path d="m1788 879h-152.9l-76.43 82.88 76.43 82.88h152.9l76.43-82.88-76.43-82.88zm-1.189 164.5h-150.5l-75.25-81.59 75.25-81.59h150.5l75.25 81.59-75.25 81.59z" fill="#FFFDFE"/>
	<polygon points="1787 880.3 1636 880.3 1561 961.5 1636 1043 1787 1043 1862 961.5" enable-background="new    " fill="#fff" opacity=".5"/>
</g>
<g opacity=".05" stroke="#fff" stroke-miterlimit="10">
	<path d="m2358 83.19h-294l-147 159.4 147 159.4h294l147-159.4-147-159.4zm-2.284 316.3h-289.4l-144.7-156.9 144.7-156.9h289.4l144.7 156.9-144.7 156.9z" fill="#FFFDFE"/>
	<polygon points="2356 85.67 2066 85.67 1922 241.8 2066 397.9 2356 397.9 2500 241.8" enable-background="new    " fill="#fff" opacity=".5"/>
</g>
<polygon points="521.1 -63.34 224.5 -63.34 76.28 32.08 224.5 127.5 521.1 127.5 669.3 32.08" enable-background="new    " fill="#fff" opacity=".02" stroke="#fff" stroke-miterlimit="10"/>
</svg>
